<svg width="87" height="42" viewBox="0 0 87 42" fill="none" xmlns="http://www.w3.org/2000/svg">
<path d="M41.6 29L41.6 14.6L44.32 14.6L44.32 26.46L50.52 26.46L50.52 29L41.6 29ZM56.5803 29.3C55.4936 29.3 54.5403 29.0567 53.7203 28.57C52.9003 28.0833 52.2603 27.4133 51.8003 26.56C51.347 25.7 51.1203 24.7133 51.1203 23.6C51.1203 22.4733 51.3536 21.4833 51.8203 20.63C52.287 19.77 52.9303 19.1 53.7503 18.62C54.5703 18.14 55.5136 17.9 56.5803 17.9C57.667 17.9 58.6203 18.1433 59.4403 18.63C60.267 19.1167 60.9103 19.79 61.3703 20.65C61.8303 21.5033 62.0603 22.4867 62.0603 23.6C62.0603 24.72 61.827 25.71 61.3603 26.57C60.9003 27.4233 60.257 28.0933 59.4303 28.58C58.6103 29.06 57.6603 29.3 56.5803 29.3ZM56.5803 26.76C57.4536 26.76 58.1036 26.4667 58.5303 25.88C58.9636 25.2867 59.1803 24.5267 59.1803 23.6C59.1803 22.64 58.9603 21.8733 58.5203 21.3C58.087 20.7267 57.4403 20.44 56.5803 20.44C55.987 20.44 55.5003 20.5733 55.1203 20.84C54.7403 21.1067 54.457 21.4767 54.2703 21.95C54.0903 22.4233 54.0003 22.9733 54.0003 23.6C54.0003 24.5667 54.217 25.3367 54.6503 25.91C55.0903 26.4767 55.7336 26.76 56.5803 26.76ZM68.3794 34.1C67.766 34.1 67.1827 34 66.6294 33.8C66.076 33.6067 65.5794 33.3333 65.1394 32.98C64.706 32.6333 64.3527 32.2267 64.0794 31.76L66.5994 30.54C66.7727 30.86 67.0194 31.1033 67.3394 31.27C67.666 31.4367 68.0194 31.52 68.3994 31.52C68.806 31.52 69.1894 31.45 69.5494 31.31C69.9094 31.1767 70.196 30.9733 70.4094 30.7C70.6294 30.4333 70.7327 30.1 70.7194 29.7L70.7194 26.56L71.0594 26.56L71.0594 18.2L73.4394 18.2L73.4394 29.74C73.4394 30.0067 73.426 30.2567 73.3994 30.49C73.3794 30.73 73.3394 30.9667 73.2794 31.2C73.106 31.86 72.7827 32.4033 72.3094 32.83C71.8427 33.2567 71.2694 33.5733 70.5894 33.78C69.9094 33.9933 69.1727 34.1 68.3794 34.1ZM68.1394 29.3C67.146 29.3 66.276 29.05 65.5294 28.55C64.7827 28.05 64.1994 27.37 63.7794 26.51C63.366 25.65 63.1594 24.68 63.1594 23.6C63.1594 22.5 63.3694 21.5233 63.7894 20.67C64.216 19.81 64.8127 19.1333 65.5794 18.64C66.346 18.1467 67.246 17.9 68.2794 17.9C69.306 17.9 70.1694 18.15 70.8694 18.65C71.5694 19.15 72.0994 19.83 72.4594 20.69C72.8194 21.55 72.9994 22.52 72.9994 23.6C72.9994 24.68 72.816 25.65 72.4494 26.51C72.0894 27.37 71.5494 28.05 70.8294 28.55C70.1094 29.05 69.2127 29.3 68.1394 29.3ZM68.5794 26.88C69.186 26.88 69.6694 26.7433 70.0294 26.47C70.396 26.1967 70.6594 25.8133 70.8194 25.32C70.9794 24.8267 71.0594 24.2533 71.0594 23.6C71.0594 22.9467 70.9794 22.3733 70.8194 21.88C70.6594 21.3867 70.4027 21.0033 70.0494 20.73C69.7027 20.4567 69.246 20.32 68.6794 20.32C68.0727 20.32 67.5727 20.47 67.1794 20.77C66.7927 21.0633 66.506 21.46 66.3194 21.96C66.1327 22.4533 66.0394 23 66.0394 23.6C66.0394 24.2067 66.1294 24.76 66.3094 25.26C66.4894 25.7533 66.766 26.1467 67.1394 26.44C67.5127 26.7333 67.9927 26.88 68.5794 26.88ZM80.5998 29.3C79.5132 29.3 78.5598 29.0567 77.7398 28.57C76.9198 28.0833 76.2798 27.4133 75.8198 26.56C75.3665 25.7 75.1398 24.7133 75.1398 23.6C75.1398 22.4733 75.3732 21.4833 75.8398 20.63C76.3065 19.77 76.9498 19.1 77.7698 18.62C78.5898 18.14 79.5332 17.9 80.5998 17.9C81.6865 17.9 82.6398 18.1433 83.4598 18.63C84.2865 19.1167 84.9298 19.79 85.3898 20.65C85.8498 21.5033 86.0798 22.4867 86.0798 23.6C86.0798 24.72 85.8465 25.71 85.3798 26.57C84.9198 27.4233 84.2765 28.0933 83.4498 28.58C82.6298 29.06 81.6798 29.3 80.5998 29.3ZM80.5998 26.76C81.4732 26.76 82.1232 26.4667 82.5498 25.88C82.9832 25.2867 83.1998 24.5267 83.1998 23.6C83.1998 22.64 82.9798 21.8733 82.5398 21.3C82.1065 20.7267 81.4598 20.44 80.5998 20.44C80.0065 20.44 79.5198 20.5733 79.1398 20.84C78.7598 21.1067 78.4765 21.4767 78.2898 21.95C78.1098 22.4233 78.0198 22.9733 78.0198 23.6C78.0198 24.5667 78.2365 25.3367 78.6698 25.91C79.1098 26.4767 79.7532 26.76 80.5998 26.76Z" fill="#DEDEDE"/>
<path d="M11.3938 35.4538L17.7277 17.2308H22.6108L14.0123 42H8.81077L0.212308 17.2308H5.09538L11.3938 35.4538Z" fill="#DEDEDE"/>
<path d="M17.6062 7.39234L11.2723 25.6154L6.38923 25.6154L14.9877 0.84619L20.1892 0.846191L28.7877 25.6154L23.9046 25.6154L17.6062 7.39234Z" fill="#DEDEDE"/>
</svg>
